<svg width="129" height="95" viewBox="0 0 129 95" fill="none" xmlns="http://www.w3.org/2000/svg">
<path fill-rule="evenodd" clip-rule="evenodd" d="M25.2673 42.9891H14.7905L14.8295 12.3195H28.5078L28.4341 0.00390625H0L2.57013 94.2603H15.0645L14.7905 55.1733H25.2673V42.9891Z" fill="white"/>
<path fill-rule="evenodd" clip-rule="evenodd" d="M48.1251 0H33.3809L34.9615 94.2564H47.8632L48.1251 0Z" fill="white"/>
<path fill-rule="evenodd" clip-rule="evenodd" d="M103.76 94.2564H116.242L118.893 11.8751H129L128.923 0H93.8618V11.8888H104.053L103.76 94.2564Z" fill="white"/>
<path fill-rule="evenodd" clip-rule="evenodd" d="M67.5711 43.6245L67.7125 11.6085H74.9158C78.1816 18.7391 80.2801 28.1686 81.9252 43.6245H67.5711ZM56.0613 94.2545H57.3266H66.6383H68.0048L68.138 55.2786H82.4492C83.5741 62.1581 83.8498 83.3936 83.917 94.2545H85.1002H94.4477H95.5033C96.5963 46.1345 93.2005 18.9351 83.8179 0H54.9683L56.0613 94.2545Z" fill="white"/>
</svg>
