<svg width="241" height="97" viewBox="0 0 241 97" fill="none" xmlns="http://www.w3.org/2000/svg">
<path d="M167.408 58.4585C167.44 58.6738 167.708 58.8802 167.968 58.9777C168.064 59.0114 168.111 59.0787 168.011 59.3075C167.269 60.9809 166.588 61.9457 165.658 63.3998C164.803 64.7433 163.84 65.7914 162.674 66.7997C160.914 68.3321 158.472 70.0003 156.452 68.8789C155.555 68.3888 155.167 67.0669 155.184 65.9969C155.227 62.9878 156.499 59.8986 158.846 56.8625C161.708 53.1526 164.873 51.2284 166.949 52.2801C169.098 53.359 168.412 55.9779 167.45 58.0336C167.375 58.1929 167.375 58.3274 167.407 58.4575M190.462 35.0117C190.617 34.7246 190.454 34.5149 190.11 34.5149C188.315 34.5149 185.961 34.5192 184.091 34.5192C183.646 34.5192 183.416 34.5751 183.206 35.0125C182.516 36.4047 174.105 49.6759 172.54 52.2531C172.275 52.6456 171.954 52.5906 171.916 52.1408C171.758 50.6102 170.502 48.8506 168.524 48.0087C167.017 47.3649 165.543 47.2482 164.01 47.4624C161.244 47.8538 158.78 49.3902 156.613 51.1229C153.347 53.7367 150.53 57.1245 146.893 59.6277C144.907 60.9904 142.188 62.1787 140.369 60.4048C138.722 58.7975 138.908 55.2278 141.428 52.4668C141.693 52.1775 142.011 52.4219 141.961 52.6787C141.724 53.9273 142.014 55.1691 142.916 56.0397C144.015 57.0772 145.588 57.1942 146.934 56.5018C148.523 55.673 149.456 54.0727 149.728 52.2563C150.149 49.4388 148.089 46.9538 145.512 46.7544C143.418 46.5997 141.41 47.3667 139.453 49.0669C138.472 49.9238 137.915 50.5568 137.066 51.8271C136.86 52.14 136.542 52.1713 136.552 51.7092C136.648 48.1019 135.232 46.0724 132.4 46.0063C130.201 45.9502 127.852 47.2068 126.021 48.7437C124.014 50.4407 122.259 52.6896 120.378 54.8028C120.144 55.063 119.94 55.0506 119.874 54.5459C119.821 52.1558 119.247 49.8409 118.196 48.1969C117.824 47.6249 117.042 47.3422 116.384 47.728C116.081 47.903 115.025 48.4144 114.256 49.0663C113.874 49.3971 113.725 49.8761 113.894 50.4899C114.909 54.0606 114.686 58.1205 113.31 61.5493C112.046 64.6898 109.591 67.5222 106.705 68.4809C104.803 69.1157 102.827 68.8051 101.604 67.0304C99.9242 64.5812 100.602 60.3216 103.106 56.7848C105.316 53.6705 108.512 51.6922 111.7 50.4184C112.075 50.2659 112.153 50.0124 112.047 49.677C111.874 49.1252 111.597 48.3737 111.485 48.0307C111.192 47.2109 110.374 47.0785 109.374 47.1929C107.058 47.4766 104.968 48.3123 102.904 49.476C97.4985 52.5234 94.7885 58.4214 93.601 61.5767C93.029 63.0926 92.54 64.038 91.9081 64.8765C91.0559 66.0041 89.9862 67.0308 88.0304 68.8392C87.8535 69.0052 87.7215 69.3506 87.8706 69.6725C88.0698 70.1076 89.0871 71.6202 89.3741 71.7551C89.6926 71.92 90.0621 71.6878 90.2102 71.5779C91.5788 70.601 93.2163 69.0528 94.0176 68.0027C94.2988 67.6427 94.5875 67.7942 94.7367 68.3404C95.4844 71.1493 97.4425 73.4427 100.15 74.4022C105.106 76.1619 110.247 73.6148 114.127 69.1806C116.593 66.3622 117.483 64.5495 118.428 63.3175C120.03 61.2278 123.19 56.5531 126.953 53.5518C128.334 52.4449 129.967 51.6006 130.788 52.1614C131.447 52.6111 131.66 53.6562 130.603 55.6814C126.765 63.0588 121.12 71.7266 120.084 73.8284C119.895 74.1929 120.063 74.4799 120.423 74.4799C122.431 74.4695 124.421 74.4748 126.244 74.4748C126.548 74.4636 126.683 74.3133 126.835 74.0879C129.78 69.2346 132.551 64.6156 135.522 59.8399C135.688 59.5584 135.841 59.7725 135.848 59.8959C135.912 61.0039 136.167 62.5194 136.793 63.5146C137.916 65.3544 139.507 66.145 141.272 66.1571C142.676 66.1795 143.386 65.9495 144.9 65.3539C146.133 64.8728 147.122 64.2414 147.881 63.67C148.324 63.3448 148.402 63.8887 148.391 63.9717C147.709 67.8245 148.551 72.3896 152.188 74.2824C156.54 76.5419 161.322 73.3661 164.073 70.4992C164.343 70.2233 164.631 70.2524 164.659 70.848C164.723 71.9426 165.187 73.2415 166.047 74.1505C168.353 76.5867 173.006 75.6212 177.675 71.8162C180.673 69.3801 183.809 65.9382 186.642 62.2936C186.749 62.1523 186.826 61.9257 186.621 61.6958C186.19 61.2203 185.566 60.6763 185.138 60.2575C184.943 60.0825 184.656 60.1329 184.492 60.2634C181.588 63.1716 178.974 66.488 175.195 69.2306C173.921 70.1671 171.89 70.9226 170.978 69.6222C170.622 69.1175 170.662 68.4196 171.01 67.5035C172.111 64.6111 189.553 36.6525 190.458 35.0035" fill="white"/>
<path d="M108.401 38.3854C108.476 38.8004 108.629 38.8812 108.808 38.8465C109.697 38.6592 110.669 37.8897 111.245 36.9979C111.769 36.1893 112.015 35.0224 111.494 34.5548C111.029 34.1342 110.273 34.253 109.712 34.7745C108.596 35.8131 108.257 37.2866 108.401 38.3863M63.9465 74.3752C57.4432 74.4201 51.7138 70.1916 51.0564 62.8664C50.691 58.8072 51.7807 55.1897 53.9624 52.2093C55.8984 49.5536 59.1741 47.3474 61.9469 46.8084C62.8492 46.6345 64.0615 46.7411 64.5627 47.3736C65.3489 48.337 65.1229 49.3953 64.3368 49.8176C62.2213 50.9547 59.6759 52.9015 58.4164 55.5597C57.3948 57.7295 57.1884 60.3442 58.7488 62.8353C61.3604 66.9867 68.6403 67.1009 75.4091 60.4801C77.0854 58.8597 78.5856 57.3029 80.1104 55.4588C83.0917 51.8699 84.0833 50.5621 88.0462 44.7746C88.0888 44.7074 88.1101 44.6198 88.0888 44.5772C88.0568 44.4987 88.0037 44.4874 87.8854 44.4762C85.2399 44.5547 82.9334 45.3836 80.6915 47.1476C80.046 47.6433 79.1168 47.5737 78.71 46.921C78.2573 46.183 78.5822 45.2223 79.3268 44.6798C82.9333 42.0391 86.8729 41.5601 90.8962 40.8453C90.8929 40.8453 91.1753 40.8564 91.4054 40.5379C93.0569 38.3063 94.304 36.2933 96.0647 34.0364C97.8386 31.7466 100.13 29.6439 101.881 28.0644C104.324 25.8521 105.892 25.1076 107.484 24.1951C107.904 23.9641 107.431 23.6882 107.303 23.6882C98.4109 21.9286 89.1678 19.6515 80.3364 23.0937C74.22 25.4968 71.5397 30.6035 72.8289 34.0157C73.7461 36.4362 76.7696 36.8297 79.6004 35.3713C81.9514 34.1584 84.1272 32.2037 85.6695 29.6875C86.5323 28.29 88.3506 29.2982 87.3682 31.7248C84.7839 38.12 79.8468 43.1927 73.8329 43.407C68.7148 43.5819 65.4126 39.6176 65.4234 34.727C65.4447 25.0807 75.6441 18.7264 86.3634 17.7765C99.2725 16.6533 111.499 20.2736 124.317 21.9105C134.137 23.1626 143.552 23.1887 153.423 20.8012C154.59 20.5343 155.409 21.3183 155.333 22.5591C155.237 24.3528 153.917 26.0803 150.666 27.947C146.969 30.082 143.101 30.7298 139.061 30.7646C129.293 30.8543 120.193 26.8413 110.777 24.6871C110.788 25.1212 110.897 25.6381 110.552 25.9121C105.336 29.9625 100.621 34.0758 97.464 39.8529C97.3575 39.9863 97.4107 40.1131 97.5992 40.0997C100.341 39.946 102.806 39.8719 105.365 39.6566C105.813 39.6117 105.83 39.4996 105.79 39.1564C105.563 37.1651 106.116 34.8944 107.78 33.3324C109.483 31.725 111.615 31.5423 113.028 32.6999C114.635 34.0181 114.493 36.3889 113.614 38.1669C112.719 39.9709 111.241 40.9357 109.823 41.4042C109.823 41.4042 109.525 41.4715 109.57 41.7564C109.623 42.2117 111.558 43.3392 111.723 43.6395C111.883 43.9255 111.798 44.3686 111.507 44.7084C111.302 44.9552 110.982 45.1862 110.572 45.1783C110.24 45.1714 110.039 45.0505 109.615 44.8094C108.748 44.3148 107.664 43.5016 106.941 42.5429C106.695 42.2188 106.57 42.2122 105.955 42.248C103.185 42.4163 98.867 42.8559 95.9411 43.2406C95.2317 43.3303 95.1273 43.4727 94.9813 43.7318C90.3164 51.8309 85.3354 60.5649 79.8666 66.4124C74.0008 72.6822 69.125 74.333 63.949 74.3757" fill="white"/>
<path d="M120.499 13.8577C59.6868 13.8577 10.3919 26.8643 10.3919 48.514C10.3919 70.1654 59.6847 83.1434 120.497 83.1434C181.308 83.1434 230.597 70.1654 230.597 48.514C230.597 26.8643 181.31 13.8577 120.499 13.8577ZM120.497 91.4249C57.4709 91.4249 6.37939 72.2132 6.37939 48.514C6.37939 24.8112 57.4709 5.60297 120.497 5.60297C183.517 5.60297 234.605 24.8112 234.605 48.514C234.605 72.2132 183.517 91.4249 120.497 91.4249Z" fill="white"/>
</svg>
