<svg width="115" height="97" viewBox="0 0 115 97" fill="none" xmlns="http://www.w3.org/2000/svg">
<path d="M85.1659 7.46155C82.4354 19.749 81.3111 25.451 79.0625 34.2851C76.8942 42.798 75.2078 50.7487 72.3167 54.6036C69.4256 58.5388 65.4906 59.3419 62.8404 59.6631C61.4752 59.8237 60.4312 59.9041 57.4599 59.9041C54.4885 59.9041 53.4445 59.8237 52.0793 59.6631C49.4291 59.3419 45.4941 58.5388 42.603 54.6036C39.712 50.7487 38.0255 42.798 35.9375 34.2851C33.6889 25.3707 32.5646 19.749 29.8342 7.46155C29.8342 7.46155 27.1037 7.54186 25.8991 7.62217C24.2126 7.70248 22.9277 7.8631 21.5625 8.02372C21.5625 8.02372 23.1686 33.3214 23.8914 44.083C24.6142 55.3264 25.9794 74.3599 27.184 88.7354C27.184 88.7354 29.5129 89.1369 33.3677 89.2975C37.383 89.5385 39.2301 89.5385 39.2301 89.5385C40.9166 83.194 42.9242 74.4402 45.2531 70.6656C47.1805 67.6138 50.0716 67.2926 51.758 67.0516C54.3279 66.7304 56.5765 66.6501 57.5402 66.6501C58.5842 66.6501 60.7525 66.6501 63.3223 67.0516C65.0087 67.2926 67.8998 67.6138 69.8272 70.6656C72.1561 74.4402 74.2441 83.194 75.8502 89.5385C75.8502 89.5385 77.617 89.5385 81.6323 89.2975C85.4871 89.0566 87.816 88.7354 87.816 88.7354C89.0206 74.3599 90.3858 55.4067 91.1086 44.083C91.8314 33.4017 93.4375 8.02372 93.4375 8.02372C92.0723 7.8631 90.7071 7.70248 89.1009 7.62217C87.8963 7.54186 85.1659 7.46155 85.1659 7.46155Z" fill="white"/>
<path d="M114.385 23.0535C112.848 7.0995 102.55 3.74918 93.5576 2.15378C89.0232 1.35608 80.9535 0.717927 75.8043 0.478618C71.2699 0.159539 60.664 0 57.4361 0C54.2082 0 43.6023 0.159539 39.068 0.478618C33.9187 0.717927 25.849 1.35608 21.3146 2.15378C12.3227 3.74918 2.02417 7.0995 0.487088 23.0535C0.0259641 27.4408 -0.0508898 33.1044 0.0259638 39.1669C0.17967 49.2977 1.02507 56.0781 1.4862 60.8643C1.79362 64.1349 3.10014 73.8668 4.79093 78.8923C7.09656 85.8322 9.17163 87.8265 11.631 89.9005C16.0885 93.6497 23.4665 94.8462 25.0036 95.1653C33.3039 96.6809 50.0581 97 57.513 97C64.891 97 81.7221 96.7607 90.0224 95.1653C91.5594 94.8462 98.9374 93.7294 103.395 89.9005C105.854 87.8265 107.929 85.8322 110.235 78.8923C111.926 73.8668 113.232 64.0551 113.54 60.8643C114.001 56.1579 114.846 49.2977 115 39.1669C114.923 33.0247 114.769 27.361 114.385 23.0535ZM108.698 49.8561C107.776 62.6192 106.7 70.2771 105.163 75.7812C103.779 80.6472 102.088 83.838 99.6291 86.1513C95.479 90.06 89.7918 90.8577 86.4102 91.4161C79.1859 92.5329 66.966 92.9317 57.4361 92.9317C47.8293 92.9317 35.6863 92.5329 28.462 91.4161C25.0805 90.8577 19.3932 90.06 15.2431 86.1513C12.7838 83.838 11.093 80.5674 9.7096 75.7812C8.17251 70.2771 7.0197 62.6192 6.1743 49.8561C5.63632 42.1982 5.71317 29.7541 6.55857 23.0535C7.71139 13.0025 12.4764 7.97697 22.698 6.14227C27.4629 5.2648 33.9187 4.62664 39.9902 4.30756C44.9089 3.98849 52.9017 3.82895 57.4361 3.82895C61.8937 3.74918 69.9634 3.98849 74.8052 4.30756C80.8767 4.62664 87.3325 5.2648 92.0974 6.14227C102.319 8.05674 107.084 13.0822 108.314 23.0535C109.159 29.6743 109.236 42.1184 108.698 49.8561Z" fill="white"/>
</svg>
