<svg width="241" height="98" viewBox="0 0 241 98" fill="none" xmlns="http://www.w3.org/2000/svg">
<g clip-path="url(#clip0_734_76)">
<path d="M200.992 52.3165C200.796 63.2196 203.131 68.9947 212.043 68.9947C220.941 68.9947 222.218 59.1571 222.218 51.671C222.218 44.18 220.529 36.908 211.181 36.908C205.447 36.908 201.213 41.4019 200.992 52.3165ZM182.962 97.8785V24.075H201.213C201.213 24.075 201.213 25.1437 201.213 27.0687C201.213 31.0621 202.81 29.4153 204.096 27.8592C204.312 27.599 208.379 22.5781 217.54 22.5781C226.672 22.5781 240.88 28.9938 240.88 51.671C240.88 69.2121 232.403 82.0451 217.765 82.0451C209.699 82.0451 205.035 78.8422 203.969 77.5495C202.901 76.2749 201.418 76.0526 201.418 77.5495C201.418 79.0497 201.418 97.8785 201.418 97.8785H182.962Z" fill="white"/>
<path d="M41.9035 0.121536H61.6316C61.6316 0.121536 61.6316 43.3286 61.6316 52.3165C61.6316 61.2946 57.8091 80.125 30.4507 80.125C3.08901 80.125 0.120483 62.5741 0.120483 52.7414V43.1162H19.2118C19.2118 43.1162 19.2118 46.7522 19.2118 52.524C19.2118 58.2991 23.031 63.6444 30.2384 63.6444C37.4491 63.6444 41.9035 59.5819 41.9035 52.7414C41.9035 45.8959 41.9035 0.121536 41.9035 0.121536Z" fill="white"/>
<path d="M102.889 44.399C102.889 39.0455 99.9252 33.9126 93.1375 33.9126C86.562 33.9126 84.227 38.614 84.227 44.399H102.889ZM91.2352 21.9359C106.728 21.9359 120.297 27.9234 120.297 55.5194H83.6049C83.6049 64.29 87.2069 67.9276 93.5702 67.9276C99.935 67.9276 102.054 62.7898 102.054 62.7898H120.089C120.089 70.7073 109.27 81.4029 92.9333 81.1904C74.2731 81.1904 65.1504 67.2854 65.1504 52.9522C65.1504 38.614 73.2052 21.9359 91.2352 21.9359Z" fill="white"/>
<path d="M161.546 44.399C161.546 39.0455 158.579 33.9126 151.791 33.9126C145.219 33.9126 142.879 38.614 142.879 44.399H161.546ZM149.892 21.9359C165.383 21.9359 178.949 27.9234 178.949 55.5194H142.259C142.259 64.29 145.864 67.9276 152.232 67.9276C158.59 67.9276 160.713 62.7898 160.713 62.7898H178.748C178.748 70.7073 167.927 81.4029 151.595 81.1904C132.925 81.1904 123.802 67.2854 123.802 52.9522C123.802 38.614 131.867 21.9359 149.892 21.9359Z" fill="white"/>
<path d="M228.8 89.0305C228.8 86.1076 231.159 83.733 234.067 83.733C236.966 83.733 239.32 86.1076 239.32 89.0305C239.32 91.9486 236.966 94.338 234.067 94.338C231.159 94.338 228.8 91.9486 228.8 89.0305ZM228.192 89.0305C228.192 92.301 230.818 94.9555 234.067 94.9555C237.295 94.9555 239.936 92.301 239.936 89.0305C239.936 85.7601 237.295 83.1056 234.067 83.1056C230.818 83.1056 228.192 85.7601 228.192 89.0305Z" fill="white"/>
<path d="M236.42 92.0605L235.2 89.1557C235.587 89.0207 235.716 88.9252 235.922 88.7028C236.19 88.413 236.358 87.9552 236.358 87.5403C236.358 86.4929 235.56 85.7799 234.402 85.7799H231.953V92.0605H232.679V89.3401H234.449L235.612 92.0605H236.42ZM232.66 88.7028V86.4633H234.387C235.109 86.4633 235.568 86.8783 235.568 87.5205C235.568 88.25 235.081 88.7028 234.286 88.7028H232.66Z" fill="white"/>
</g>
<defs>
<clipPath id="clip0_734_76">
<rect width="241" height="98" fill="white"/>
</clipPath>
</defs>
</svg>
