<svg width="106" height="104" viewBox="0 0 106 104" fill="none" xmlns="http://www.w3.org/2000/svg">
<g clip-path="url(#clip0_734_102)">
<path d="M52.9956 55.796C52.8366 55.796 52.5318 55.5967 52.0151 54.6694C49.8524 50.7187 46.883 47.2477 43.2922 44.473C40.4742 42.3046 37.346 40.5554 34.0083 39.2817C33.5025 39.0801 32.9946 38.8836 32.4846 38.6924C28.0149 36.959 23.3818 35.1694 19.08 32.7254C18.6031 32.4605 18.1319 32.186 17.6667 31.902C18.5235 30.4287 19.5217 29.0204 20.6258 27.7334C22.2283 25.8542 24.091 24.2045 26.1599 22.8324C28.3812 21.3752 30.7826 20.2016 33.3061 19.3397C38.6856 17.459 45.1295 16.536 52.9956 16.5274C60.8705 16.536 67.31 17.459 72.6895 19.344C75.2149 20.2029 77.6179 21.3752 79.8401 22.8324C81.9078 24.2043 83.7704 25.8524 85.3742 27.729C86.4783 29.0204 87.4721 30.4287 88.3333 31.902C87.8784 32.1794 87.397 32.461 86.92 32.734C82.6093 35.178 77.9851 36.9677 73.5066 38.6967L71.9828 39.286C68.6484 40.5608 65.5232 42.3099 62.7078 44.4774C59.1155 47.2522 56.1459 50.7249 53.9849 54.678C53.4682 55.601 53.159 55.796 52.9956 55.796ZM52.9956 86.4457C46.1762 86.437 40.6377 85.8867 36.0797 84.7687C31.6057 83.6767 27.8868 81.9954 24.7024 79.6207C22.2614 77.7815 20.1787 75.5252 18.5544 72.9604C17.0327 70.5673 15.8304 67.9925 14.9769 65.299C13.6458 61.1131 12.9508 56.7575 12.9143 52.3727C12.9143 49.452 13.1219 46.683 13.5106 44.135C18.3954 46.7177 23.0197 48.0134 27.1139 49.1617L28.0635 49.4217C33.761 51.0294 38.2837 53.1354 41.9097 55.8697C44.0077 57.4644 45.8406 59.306 47.3422 61.347C48.972 63.5484 50.2705 66.0617 51.2157 68.822C51.6397 70.0744 52.099 70.85 52.9956 70.85C53.9098 70.85 54.3559 70.07 54.7843 68.822C56.4701 63.677 59.7169 59.1596 64.0902 55.874C67.7119 53.1354 72.239 51.0294 77.9365 49.4217L78.8905 49.1617C82.9803 48.0134 87.6046 46.7177 92.485 44.135C92.8825 46.6874 93.0857 49.452 93.0857 52.3684C93.0857 54.353 92.8825 59.579 91.0319 65.299C90.1789 67.9919 88.9781 70.5666 87.4588 72.9604C85.8295 75.5269 83.7407 77.7833 81.2932 79.6207C78.0999 81.9954 74.3811 83.6767 69.9247 84.7687C65.3534 85.8867 59.8193 86.437 52.9956 86.4457ZM95.8019 23.3697C87.3705 14.4864 73.7627 10.413 52.9956 10.3914C32.2372 10.413 18.6295 14.482 10.1981 23.3654C3.93083 29.9564 0 39.078 0 51.454C0 58.2964 1.7225 75.7207 15.741 84.7167C24.1327 90.0987 34.9712 93.5827 52.9956 93.6087C71.0288 93.5827 81.8629 90.0987 90.259 84.7167C104.273 75.7207 106 58.292 106 51.454C106 39.1127 102.038 29.926 95.7975 23.361L95.8019 23.3697Z" fill="white"/>
</g>
<defs>
<clipPath id="clip0_734_102">
<rect width="106" height="104" fill="white"/>
</clipPath>
</defs>
</svg>
