<svg width="145" height="95" viewBox="0 0 145 95" fill="none" xmlns="http://www.w3.org/2000/svg">
<path d="M72.5 0.656555C32.8327 0.656555 0.670258 21.6281 0.670258 47.4905C0.670258 73.3624 32.8327 94.3435 72.5 94.3435C112.167 94.3435 144.33 73.3719 144.33 47.4905C144.33 21.6091 112.167 0.656555 72.5 0.656555ZM72.5 74.2378C66.5999 74.2378 61.7855 62.5245 61.4834 47.7855C65.0329 48.0995 68.724 48.2707 72.5 48.2707C76.276 48.2707 79.9671 48.0995 83.5166 47.7855C83.2145 62.515 78.4001 74.2378 72.5 74.2378ZM62.2103 36.0817C63.8151 25.6626 67.8177 18.2692 72.5 18.2692C77.1823 18.2692 81.1849 25.6626 82.7897 36.0817C79.4951 36.3767 76.0589 36.5385 72.5 36.5385C68.9411 36.5385 65.5049 36.3767 62.2103 36.0817ZM72.5 7.4314C64.7969 7.4314 58.2266 19.059 55.8005 35.292C41.1966 32.9988 31.0013 27.7654 31.0013 21.6852C31.0013 13.4831 49.5794 6.83194 72.5 6.83194C95.4206 6.83194 113.999 13.4831 113.999 21.6852C113.999 27.7654 103.803 32.9988 89.1995 35.292C86.7734 19.059 80.2031 7.4314 72.5 7.4314ZM10.9694 45.7397C10.9694 37.804 13.9997 30.3536 19.2767 23.9593C19.2201 24.4066 19.1823 24.8633 19.1823 25.32C19.1823 35.3205 34.0599 43.8462 54.8187 46.9862C54.7998 47.7093 54.7998 48.442 54.7998 49.1747C54.7998 67.815 59.9824 83.6008 67.1475 88.9578C35.6647 87.0453 10.9694 68.424 10.9694 45.7397ZM77.8525 88.9578C85.0176 83.6008 90.2002 67.815 90.2002 49.1747C90.2002 48.4325 90.1908 47.7093 90.1813 46.9862C110.931 43.8462 125.818 35.33 125.818 25.32C125.818 24.8633 125.78 24.4066 125.723 23.9593C131 30.3726 134.031 37.804 134.031 45.7397C134.031 68.424 109.335 87.0453 77.8525 88.9578Z" fill="white"/>
</svg>
