<svg width="101" height="103" viewBox="0 0 101 103" fill="none" xmlns="http://www.w3.org/2000/svg">
<g clip-path="url(#clip0_734_50)">
<path d="M50.5599 97.9595C25.5377 97.9595 5.03753 76.951 5.03753 51.4332C5.03753 45.6943 6.04243 40.2628 7.95176 35.1388L34.5819 89.7611C34.8833 90.4784 35.3858 91.0933 36.1897 91.0933C36.9936 91.0933 37.4961 90.4784 37.7976 89.7611L50.0575 61.7838C50.1579 61.4764 50.3589 61.1689 50.6604 61.1689C50.9619 61.1689 51.0624 61.4764 51.2633 61.7838L63.5232 89.7611C63.8247 90.4784 64.3272 91.0933 65.1311 91.0933C65.935 91.0933 66.4375 90.4784 66.7389 89.7611L93.369 35.1388C95.2784 40.2628 96.2833 45.6943 96.2833 51.4332C96.0823 76.951 75.5821 97.9595 50.5599 97.9595ZM50.5599 40.8777C50.2584 40.8777 50.1579 40.5703 49.957 40.2628L35.6873 7.46895C40.3098 5.72677 45.3344 4.80445 50.5599 4.80445C55.7854 4.80445 60.81 5.72677 65.4326 7.46895L51.1629 40.2628C50.9619 40.6727 50.8614 40.8777 50.5599 40.8777ZM35.9887 74.5939C35.6873 74.5939 35.5868 74.2865 35.3858 73.979L12.2729 26.4279C16.393 19.9716 21.92 14.5401 28.6529 10.7483L45.3344 48.5638C45.5354 49.1787 46.0378 49.3836 46.5403 49.3836H54.5795C55.1825 49.3836 55.5845 49.2811 55.8859 48.5638L72.5674 10.7483C79.1998 14.5401 84.8273 19.9716 88.9474 26.4279L65.6335 73.979C65.5331 74.2865 65.3321 74.5939 65.0306 74.5939C64.7291 74.5939 64.6286 74.2865 64.4277 73.979L55.6849 53.6878C55.3835 52.9704 54.9815 52.868 54.3786 52.868H46.3393C45.7364 52.868 45.3344 52.9704 45.0329 53.6878L36.5917 73.979C36.4912 74.2865 36.2902 74.5939 35.9887 74.5939ZM50.5599 102.674C78.3959 102.674 100.805 79.8204 100.805 51.4332C100.805 23.046 78.3959 0.19281 50.5599 0.19281C22.7239 0.19281 0.314453 23.046 0.314453 51.4332C0.314453 79.8204 22.7239 102.674 50.5599 102.674Z" fill="white"/>
</g>
<defs>
<clipPath id="clip0_734_50">
<rect width="101" height="103" fill="white"/>
</clipPath>
</defs>
</svg>
