<svg width="20" height="20" viewBox="0 0 20 20" fill="none" xmlns="http://www.w3.org/2000/svg">
<path d="M9.8101 5.3101C8.92009 5.3101 8.05006 5.57402 7.31004 6.06849C6.57001 6.56296 5.99324 7.26576 5.65264 8.08803C5.31205 8.91029 5.22293 9.81509 5.39657 10.688C5.5702 11.5609 5.99879 12.3627 6.62812 12.9921C7.25746 13.6214 8.05928 14.05 8.9322 14.2236C9.80511 14.3973 10.7099 14.3082 11.5322 13.9676C12.3544 13.627 13.0572 13.0502 13.5517 12.3102C14.0462 11.5701 14.3101 10.7001 14.3101 9.8101C14.3089 8.61701 13.8344 7.47314 12.9907 6.62949C12.1471 5.78585 11.0032 5.31134 9.8101 5.3101ZM9.8101 12.8101C9.21676 12.8101 8.63674 12.6342 8.14339 12.3045C7.65004 11.9749 7.26553 11.5063 7.03846 10.9582C6.8114 10.41 6.75199 9.80677 6.86775 9.22483C6.9835 8.64289 7.26922 8.10834 7.68878 7.68878C8.10834 7.26922 8.64289 6.9835 9.22483 6.86775C9.80677 6.75199 10.41 6.8114 10.9582 7.03846C11.5063 7.26553 11.9749 7.65004 12.3045 8.14339C12.6342 8.63674 12.8101 9.21676 12.8101 9.8101C12.8101 10.6058 12.494 11.3688 11.9314 11.9314C11.3688 12.494 10.6058 12.8101 9.8101 12.8101ZM18.0601 10.0126C18.0639 9.8776 18.0639 9.7426 18.0601 9.6076L19.4589 7.8601C19.5322 7.76835 19.583 7.66065 19.6071 7.54569C19.6312 7.43073 19.6279 7.31171 19.5976 7.19823C19.3679 6.33643 19.0249 5.5089 18.5776 4.73729C18.519 4.63634 18.4376 4.55046 18.34 4.4865C18.2423 4.42254 18.1311 4.38225 18.0151 4.36885L15.7914 4.12135C15.6989 4.02385 15.6051 3.9301 15.5101 3.8401L15.2476 1.61073C15.2341 1.49468 15.1937 1.38338 15.1295 1.28572C15.0654 1.18806 14.9794 1.10674 14.8782 1.04823C14.1067 0.601272 13.2791 0.258897 12.4173 0.0301014C12.3038 -0.000217189 12.1848 -0.00345701 12.0698 0.0206431C11.9549 0.0447431 11.8472 0.0955092 11.7554 0.168851L10.0126 1.5601C9.8776 1.5601 9.7426 1.5601 9.6076 1.5601L7.8601 0.164164C7.76835 0.0908217 7.66065 0.0400557 7.54569 0.0159556C7.43073 -0.00814444 7.31171 -0.0049048 7.19823 0.0254138C6.33643 0.255127 5.5089 0.598117 4.73729 1.04541C4.63634 1.10403 4.55046 1.18541 4.4865 1.28306C4.42254 1.38071 4.38225 1.49195 4.36885 1.60791L4.12135 3.83541C4.02385 3.92854 3.9301 4.02229 3.8401 4.11666L1.61073 4.3726C1.49468 4.3861 1.38338 4.42653 1.28572 4.49066C1.18806 4.55479 1.10674 4.64085 1.04823 4.74198C0.601364 5.51369 0.258696 6.3412 0.0291639 7.20291C-0.0010265 7.31647 -0.00411435 7.43553 0.0201492 7.55049C0.0444127 7.66546 0.0953487 7.77312 0.168851 7.86479L1.5601 9.6076C1.5601 9.7426 1.5601 9.8776 1.5601 10.0126L0.164164 11.7601C0.0908217 11.8519 0.0400557 11.9595 0.0159556 12.0745C-0.00814444 12.1895 -0.0049048 12.3085 0.0254138 12.422C0.255127 13.2838 0.598117 14.1113 1.04541 14.8829C1.10403 14.9839 1.18541 15.0697 1.28306 15.1337C1.38071 15.1977 1.49195 15.238 1.60791 15.2514L3.83166 15.4989C3.92479 15.5964 4.01854 15.6901 4.11291 15.7801L4.3726 18.0095C4.3861 18.1255 4.42653 18.2368 4.49066 18.3345C4.55479 18.4321 4.64085 18.5135 4.74198 18.572C5.51369 19.0188 6.3412 19.3615 7.20291 19.591C7.31647 19.6212 7.43553 19.6243 7.55049 19.6001C7.66546 19.5758 7.77312 19.5249 7.86479 19.4514L9.6076 18.0601C9.7426 18.0639 9.8776 18.0639 10.0126 18.0601L11.7601 19.4589C11.8519 19.5322 11.9595 19.583 12.0745 19.6071C12.1895 19.6312 12.3085 19.6279 12.422 19.5976C13.2839 19.3683 14.1115 19.0253 14.8829 18.5776C14.9839 18.519 15.0697 18.4376 15.1337 18.34C15.1977 18.2423 15.238 18.1311 15.2514 18.0151L15.4989 15.7914C15.5964 15.6989 15.6901 15.6051 15.7801 15.5101L18.0095 15.2476C18.1255 15.2341 18.2368 15.1937 18.3345 15.1295C18.4321 15.0654 18.5135 14.9794 18.572 14.8782C19.0188 14.1065 19.3615 13.279 19.591 12.4173C19.6212 12.3037 19.6243 12.1847 19.6001 12.0697C19.5758 11.9547 19.5249 11.8471 19.4514 11.7554L18.0601 10.0126ZM16.5507 9.40323C16.5667 9.67424 16.5667 9.94596 16.5507 10.217C16.5396 10.4025 16.5977 10.5856 16.7139 10.7307L18.0442 12.3929C17.8915 12.878 17.6961 13.3486 17.4601 13.7992L15.3414 14.0392C15.1568 14.0596 14.9865 14.1478 14.8632 14.2867C14.6828 14.4896 14.4906 14.6818 14.2876 14.8623C14.1488 14.9855 14.0606 15.1559 14.0401 15.3404L13.8048 17.4573C13.3543 17.6934 12.8837 17.8888 12.3985 18.0414L10.7354 16.711C10.6023 16.6047 10.437 16.5468 10.2667 16.547H10.2217C9.95065 16.5629 9.67893 16.5629 9.40791 16.547C9.22243 16.5363 9.03954 16.5944 8.89417 16.7101L7.22729 18.0414C6.74216 17.8887 6.27156 17.6932 5.82104 17.4573L5.58104 15.3414C5.56056 15.1568 5.47237 14.9865 5.33354 14.8632C5.13058 14.6828 4.93837 14.4906 4.75791 14.2876C4.63466 14.1488 4.4643 14.0606 4.27979 14.0401L2.16291 13.8039C1.92684 13.3534 1.73138 12.8828 1.57885 12.3976L2.90916 10.7345C3.02533 10.5894 3.08346 10.4063 3.07229 10.2207C3.05635 9.94971 3.05635 9.67799 3.07229 9.40698C3.08346 9.22143 3.02533 9.03835 2.90916 8.89323L1.57885 7.22729C1.7315 6.74216 1.92696 6.27156 2.16291 5.82104L4.27885 5.58104C4.46337 5.56056 4.63373 5.47237 4.75698 5.33354C4.93744 5.13058 5.12964 4.93837 5.3326 4.75791C5.47199 4.63458 5.56054 4.46383 5.58104 4.27885L5.81635 2.16291C6.26682 1.92684 6.73743 1.73138 7.2226 1.57885L8.88573 2.90916C9.03085 3.02533 9.21393 3.08346 9.39948 3.07229C9.67049 3.05635 9.94221 3.05635 10.2132 3.07229C10.3987 3.08292 10.5816 3.02485 10.727 2.90916L12.3929 1.57885C12.878 1.7315 13.3486 1.92696 13.7992 2.16291L14.0392 4.27885C14.0596 4.46337 14.1478 4.63373 14.2867 4.75698C14.4896 4.93744 14.6818 5.12964 14.8623 5.3326C14.9855 5.47143 15.1559 5.55962 15.3404 5.5801L17.4573 5.81541C17.6934 6.26589 17.8888 6.7365 18.0414 7.22166L16.711 8.88479C16.5938 9.03113 16.5356 9.2161 16.5479 9.40323H16.5507Z" fill="#FF8929"/>
</svg>
