<svg width="114" height="98" viewBox="0 0 114 98" fill="none" xmlns="http://www.w3.org/2000/svg">
<g clip-path="url(#clip0_734_90)">
<path d="M66.4332 52.9158C66.3427 52.939 65.9808 52.939 65.8225 52.939H54.151V55.7277H66.0261C66.1165 55.7277 66.8177 55.7277 66.9535 55.7045C69.3737 55.4721 70.482 53.4038 70.482 51.5911C70.482 49.732 69.3285 47.7334 67.1344 47.5243C66.7046 47.4778 66.3427 47.4778 66.1844 47.4778H58.426C58.0868 47.4778 57.7022 47.4546 57.5665 47.4081C56.9558 47.2454 56.7296 46.6877 56.7296 46.2229C56.7296 45.8046 56.9558 45.2468 57.5891 45.0609C57.7701 45.0144 57.9737 44.9912 58.4034 44.9912H69.5999V42.249H58.2225C57.7475 42.249 57.3856 42.2722 57.0915 42.3187C55.1463 42.5976 53.7891 44.2011 53.7891 46.2461C53.7891 47.9193 54.807 49.8714 57.0463 50.1968C57.4534 50.2433 58.0189 50.2433 58.2677 50.2433H65.8225C65.9582 50.2433 66.2975 50.2433 66.3654 50.2665C67.2249 50.3827 67.5189 51.0334 67.5189 51.6144C67.5189 52.1721 67.1797 52.7763 66.4332 52.9158Z" fill="white"/>
<path d="M44.3117 52.9158C44.2212 52.939 43.8593 52.939 43.7236 52.939H32.0295V55.7277H43.9046C43.995 55.7277 44.6962 55.7277 44.8319 55.7045C47.2522 55.4721 48.3605 53.4038 48.3605 51.5911C48.3605 49.732 47.2069 47.7334 45.0129 47.5243C44.5831 47.4778 44.2212 47.4778 44.0629 47.4778H36.3045C35.9652 47.4778 35.5807 47.4546 35.445 47.4081C34.8343 47.2454 34.6081 46.6877 34.6081 46.2229C34.6081 45.8046 34.8343 45.2468 35.4676 45.0609C35.6486 45.0144 35.8521 44.9912 36.2819 44.9912H47.4784V42.249H36.101C35.626 42.249 35.264 42.2722 34.97 42.3187C33.0248 42.5976 31.6676 44.2011 31.6676 46.2461C31.6676 47.9193 32.6855 49.8714 34.9248 50.1968C35.3319 50.2433 35.8974 50.2433 36.1462 50.2433H43.701C43.8367 50.2433 44.176 50.2433 44.2438 50.2665C45.1034 50.3827 45.3974 51.0334 45.3974 51.6144C45.3974 52.1721 45.0807 52.7763 44.3117 52.9158Z" fill="white"/>
<path d="M25.945 42.156H23.0045V55.7975H25.945V42.156Z" fill="white"/>
<path d="M16.5128 55.7975V42.156H13.5723V52.3348L3.77825 42.156H0.000854492V55.7975H2.94134V45.5722L12.8033 55.7975H16.5128Z" fill="white"/>
<path d="M111.083 42.156V52.3348L101.289 42.156H97.5119V55.7975H100.452V45.5722L110.292 55.7975H114.001V42.156H111.083Z" fill="white"/>
<path d="M82.1988 42.156L73.9202 55.7975H77.494L78.9642 53.3573H88.6226L90.0928 55.7975H93.644L85.3654 42.156H82.1988ZM87.1071 50.7778H80.4797L83.8047 45.2933L87.1071 50.7778Z" fill="white"/>
<path d="M16.3545 34.4173C22.2807 16.6393 38.6117 4.69433 57.0236 4.69433C75.4356 4.69433 91.7892 16.6393 97.6928 34.4173L97.7381 34.5568H110.699V32.9533L105.315 32.3026C101.99 31.9075 101.289 30.3969 100.385 28.4913L100.158 28.0265C92.3773 11.0154 75.4356 0 57.0236 0C38.5891 0 21.6699 11.0154 13.889 28.073L13.6628 28.5378C12.758 30.4434 12.0568 31.954 8.7318 32.349L3.34845 32.9997V34.6032H16.2866L16.3545 34.4173Z" fill="white"/>
<path d="M97.7379 63.42L97.6926 63.5594C91.7664 81.3374 75.4354 93.2592 57.0234 93.2592C38.6115 93.2592 22.2578 81.3142 16.3542 63.5362L16.309 63.3967H3.37085V65.0002L8.7542 65.6509C12.0792 66.046 12.7804 67.5566 13.6852 69.4622L13.9114 69.927C21.6923 86.9846 38.6341 98 57.046 98C75.458 98 92.3997 86.9846 100.181 69.9502L100.407 69.4854C101.312 67.5798 102.013 66.0692 105.338 65.6742L110.721 65.0235V63.42H97.7379Z" fill="white"/>
</g>
<defs>
<clipPath id="clip0_734_90">
<rect width="114" height="98" fill="white"/>
</clipPath>
</defs>
</svg>
